<svg xmlns="http://www.w3.org/2000/svg" viewBox="40 -20 820 940" width="820" height="940">
  <rect x="40" y="-20" width="820" height="940" fill="#1e1e1e"/>
  <rect x="80" y="90" width="170" height="50" rx="8" ry="8" fill="#2d2d2d" stroke="#e0e0e0" stroke-width="2"/>
  <rect x="270" y="90" width="170" height="50" rx="8" ry="8" fill="#2d2d2d" stroke="#e0e0e0" stroke-width="2"/>
  <rect x="460" y="90" width="170" height="50" rx="8" ry="8" fill="#2d2d2d" stroke="#e0e0e0" stroke-width="2"/>
  <rect x="650" y="90" width="170" height="50" rx="8" ry="8" fill="#2d2d2d" stroke="#e0e0e0" stroke-width="2"/>
  <rect x="80" y="160" width="170" height="50" rx="8" ry="8" fill="#2d2d2d" stroke="#e0e0e0" stroke-width="2"/>
  <rect x="270" y="160" width="170" height="50" rx="8" ry="8" fill="#2d2d2d" stroke="#e0e0e0" stroke-width="2"/>
  <rect x="460" y="160" width="170" height="50" rx="8" ry="8" fill="#2d2d2d" stroke="#e0e0e0" stroke-width="2"/>
  <rect x="650" y="160" width="170" height="50" rx="8" ry="8" fill="#2d2d2d" stroke="#e0e0e0" stroke-width="2"/>
  <rect x="80" y="270" width="740" height="80" rx="8" ry="8" fill="#1a5632" stroke="#e0e0e0" stroke-width="2"/>
  <rect x="80" y="390" width="740" height="50" rx="8" ry="8" fill="#2d2d2d" stroke="#e0e0e0" stroke-width="2"/>
  <rect x="80" y="500" width="740" height="160" rx="8" ry="8" fill="#6b5b00" stroke="#e0e0e0" stroke-width="2"/>
  <rect x="100" y="535" width="220" height="45" rx="8" ry="8" fill="#1e1e1e" stroke="#e0e0e0" stroke-width="2"/>
  <rect x="340" y="535" width="220" height="45" rx="8" ry="8" fill="#1e1e1e" stroke="#e0e0e0" stroke-width="2"/>
  <rect x="580" y="535" width="220" height="45" rx="8" ry="8" fill="#1e1e1e" stroke="#e0e0e0" stroke-width="2"/>
  <rect x="180" y="600" width="220" height="45" rx="8" ry="8" fill="#1e1e1e" stroke="#e0e0e0" stroke-width="2"/>
  <rect x="500" y="600" width="220" height="45" rx="8" ry="8" fill="#1e1e1e" stroke="#e0e0e0" stroke-width="2"/>
  <rect x="80" y="700" width="740" height="80" rx="8" ry="8" fill="#1a5276" stroke="#e0e0e0" stroke-width="2"/>
  <rect x="100" y="715" width="220" height="50" rx="8" ry="8" fill="#1e1e1e" stroke="#e0e0e0" stroke-width="2"/>
  <rect x="340" y="715" width="220" height="50" rx="8" ry="8" fill="#1e1e1e" stroke="#e0e0e0" stroke-width="2"/>
  <rect x="580" y="715" width="220" height="50" rx="8" ry="8" fill="#1e1e1e" stroke="#e0e0e0" stroke-width="2"/>
  <rect x="80" y="820" width="740" height="60" rx="8" ry="8" fill="#6b4000" stroke="#e0e0e0" stroke-width="2"/>
  <path d="M450,210 L450,240" fill="none" stroke="#e0e0e0" stroke-width="2"/><polygon points="450,240 445.3269798922962,228.94726807196537 454.6730201077038,228.94726807196537" fill="#e0e0e0" stroke="none"/>
  <path d="M450,350 L450,380" fill="none" stroke="#e0e0e0" stroke-width="2"/><polygon points="450,380 445.3269798922962,368.94726807196537 454.6730201077038,368.94726807196537" fill="#e0e0e0" stroke="none"/>
  <path d="M450,440 L450,470" fill="none" stroke="#e0e0e0" stroke-width="2"/><polygon points="450,470 445.3269798922962,458.94726807196537 454.6730201077038,458.94726807196537" fill="#e0e0e0" stroke="none"/>
  <path d="M450,660 L450,690" fill="none" stroke="#e0e0e0" stroke-width="2"/><polygon points="450,690 445.3269798922962,678.9472680719654 454.6730201077038,678.9472680719654" fill="#e0e0e0" stroke="none"/>
  <path d="M450,780 L450,810" fill="none" stroke="#e0e0e0" stroke-width="2"/><polygon points="450,810 445.3269798922962,798.9472680719654 454.6730201077038,798.9472680719654" fill="#e0e0e0" stroke="none"/>
  <text x="455" y="42" font-family="monospace, 'Courier New'" font-size="22" fill="#e0e0e0" text-anchor="middle">SITREP ARCHITECTURE</text>
  <text x="80" y="76" font-family="monospace, 'Courier New'" font-size="16" fill="#e0e0e0" text-anchor="start">DATA SOURCES</text>
  <text x="165" y="107.5" font-family="monospace, 'Courier New'" font-size="12" fill="#e0e0e0" text-anchor="middle" dominant-baseline="central">Prometheus</text>
<text x="165" y="122.5" font-family="monospace, 'Courier New'" font-size="12" fill="#e0e0e0" text-anchor="middle" dominant-baseline="central">(metrics)</text>
  <text x="355" y="107.5" font-family="monospace, 'Courier New'" font-size="12" fill="#e0e0e0" text-anchor="middle" dominant-baseline="central">Alertmanager</text>
<text x="355" y="122.5" font-family="monospace, 'Courier New'" font-size="12" fill="#e0e0e0" text-anchor="middle" dominant-baseline="central">(alerts)</text>
  <text x="545" y="107.5" font-family="monospace, 'Courier New'" font-size="12" fill="#e0e0e0" text-anchor="middle" dominant-baseline="central">GitHub</text>
<text x="545" y="122.5" font-family="monospace, 'Courier New'" font-size="12" fill="#e0e0e0" text-anchor="middle" dominant-baseline="central">(deploys)</text>
  <text x="735" y="107.5" font-family="monospace, 'Courier New'" font-size="12" fill="#e0e0e0" text-anchor="middle" dominant-baseline="central">LaunchDarkly</text>
<text x="735" y="122.5" font-family="monospace, 'Courier New'" font-size="12" fill="#e0e0e0" text-anchor="middle" dominant-baseline="central">(flags)</text>
  <text x="165" y="177.5" font-family="monospace, 'Courier New'" font-size="12" fill="#e0e0e0" text-anchor="middle" dominant-baseline="central">OTLP</text>
<text x="165" y="192.5" font-family="monospace, 'Courier New'" font-size="12" fill="#e0e0e0" text-anchor="middle" dominant-baseline="central">(logs/traces)</text>
  <text x="355" y="177.5" font-family="monospace, 'Courier New'" font-size="12" fill="#e0e0e0" text-anchor="middle" dominant-baseline="central">PagerDuty</text>
<text x="355" y="192.5" font-family="monospace, 'Courier New'" font-size="12" fill="#e0e0e0" text-anchor="middle" dominant-baseline="central">(incidents)</text>
  <text x="545" y="177.5" font-family="monospace, 'Courier New'" font-size="12" fill="#e0e0e0" text-anchor="middle" dominant-baseline="central">ArgoCD</text>
<text x="545" y="192.5" font-family="monospace, 'Courier New'" font-size="12" fill="#e0e0e0" text-anchor="middle" dominant-baseline="central">(deploys)</text>
  <text x="735" y="177.5" font-family="monospace, 'Courier New'" font-size="12" fill="#e0e0e0" text-anchor="middle" dominant-baseline="central">Terraform</text>
<text x="735" y="192.5" font-family="monospace, 'Courier New'" font-size="12" fill="#e0e0e0" text-anchor="middle" dominant-baseline="central">(infra)</text>
  <text x="80" y="256" font-family="monospace, 'Courier New'" font-size="16" fill="#e0e0e0" text-anchor="start">INGEST TIER</text>
  <text x="450" y="293.75" font-family="monospace, 'Courier New'" font-size="13" fill="#e0e0e0" text-anchor="middle" dominant-baseline="central">INGEST GATEWAY</text>
<text x="450" y="310" font-family="monospace, 'Courier New'" font-size="13" fill="#e0e0e0" text-anchor="middle" dominant-baseline="central">Webhooks | Remote Write | OTLP | Polling</text>
<text x="450" y="326.25" font-family="monospace, 'Courier New'" font-size="13" fill="#e0e0e0" text-anchor="middle" dominant-baseline="central">OUTPUT: Normalized events with service_id</text>
  <text x="450" y="407.5" font-family="monospace, 'Courier New'" font-size="12" fill="#e0e0e0" text-anchor="middle" dominant-baseline="central">KAFKA / NATS / REDIS STREAMS</text>
<text x="450" y="422.5" font-family="monospace, 'Courier New'" font-size="12" fill="#e0e0e0" text-anchor="middle" dominant-baseline="central">Topics: metrics | alerts | changes | logs | incidents</text>
  <text x="80" y="486" font-family="monospace, 'Courier New'" font-size="16" fill="#e0e0e0" text-anchor="start">STREAM PROCESSOR</text>
  <text x="450" y="522" font-family="monospace, 'Courier New'" font-size="14" fill="#e0e0e0" text-anchor="middle">SNAPSHOT GENERATOR</text>
  <text x="210" y="550.625" font-family="monospace, 'Courier New'" font-size="11" fill="#e0e0e0" text-anchor="middle" dominant-baseline="central">Window Manager</text>
<text x="210" y="564.375" font-family="monospace, 'Courier New'" font-size="11" fill="#e0e0e0" text-anchor="middle" dominant-baseline="central">batch/incident/refresh</text>
  <text x="450" y="550.625" font-family="monospace, 'Courier New'" font-size="11" fill="#e0e0e0" text-anchor="middle" dominant-baseline="central">State Store</text>
<text x="450" y="564.375" font-family="monospace, 'Courier New'" font-size="11" fill="#e0e0e0" text-anchor="middle" dominant-baseline="central">baselines/topology</text>
  <text x="690" y="550.625" font-family="monospace, 'Courier New'" font-size="11" fill="#e0e0e0" text-anchor="middle" dominant-baseline="central">Correlation Engine</text>
<text x="690" y="564.375" font-family="monospace, 'Courier New'" font-size="11" fill="#e0e0e0" text-anchor="middle" dominant-baseline="central">temporal/topological</text>
  <text x="290" y="615.625" font-family="monospace, 'Courier New'" font-size="11" fill="#e0e0e0" text-anchor="middle" dominant-baseline="central">Log Summarizer</text>
<text x="290" y="629.375" font-family="monospace, 'Courier New'" font-size="11" fill="#e0e0e0" text-anchor="middle" dominant-baseline="central">Drain3/patterns</text>
  <text x="610" y="615.625" font-family="monospace, 'Courier New'" font-size="11" fill="#e0e0e0" text-anchor="middle" dominant-baseline="central">Anomaly Detector</text>
<text x="610" y="629.375" font-family="monospace, 'Courier New'" font-size="11" fill="#e0e0e0" text-anchor="middle" dominant-baseline="central">z-score/baseline</text>
  <text x="210" y="733.125" font-family="monospace, 'Courier New'" font-size="11" fill="#e0e0e0" text-anchor="middle" dominant-baseline="central">ClickHouse</text>
<text x="210" y="746.875" font-family="monospace, 'Courier New'" font-size="11" fill="#e0e0e0" text-anchor="middle" dominant-baseline="central">(snapshots, events)</text>
  <text x="450" y="733.125" font-family="monospace, 'Courier New'" font-size="11" fill="#e0e0e0" text-anchor="middle" dominant-baseline="central">Postgres</text>
<text x="450" y="746.875" font-family="monospace, 'Courier New'" font-size="11" fill="#e0e0e0" text-anchor="middle" dominant-baseline="central">(metadata, topology)</text>
  <text x="690" y="733.125" font-family="monospace, 'Courier New'" font-size="11" fill="#e0e0e0" text-anchor="middle" dominant-baseline="central">Vector DB</text>
<text x="690" y="746.875" font-family="monospace, 'Courier New'" font-size="11" fill="#e0e0e0" text-anchor="middle" dominant-baseline="central">(embeddings)</text>
  <text x="450" y="850" font-family="monospace, 'Courier New'" font-size="13" fill="#e0e0e0" text-anchor="middle" dominant-baseline="central">IncidentTown (AI agent)  |  Keep (alert corr.)  |  REST API (dashboards)</text>
</svg>